<svg width="32" height="32" viewBox="0 0 32 32" fill="none" xmlns="http://www.w3.org/2000/svg">
  <defs>
    <linearGradient id="grad1" x1="0%" y1="0%" x2="100%" y2="100%">
      <stop offset="0%" style="stop-color:#3b82f6;stop-opacity:1" />
      <stop offset="100%" style="stop-color:#1e40af;stop-opacity:1" />
    </linearGradient>
    <linearGradient id="grad2" x1="0%" y1="0%" x2="100%" y2="100%">
      <stop offset="0%" style="stop-color:#f59e0b;stop-opacity:1" />
      <stop offset="100%" style="stop-color:#d97706;stop-opacity:1" />
    </linearGradient>
  </defs>
  
  <!-- Background circle -->
  <circle cx="16" cy="16" r="15" fill="url(#grad1)" stroke="#ffffff" stroke-width="2"/>
  
  <!-- Book -->
  <path d="M8 10h16v12H8z" fill="url(#grad2)" stroke="#ffffff" stroke-width="1"/>
  <path d="M8 10h16v2H8z" fill="#ffffff" opacity="0.3"/>
  <path d="M8 14h12v1H8z" fill="#ffffff" opacity="0.7"/>
  <path d="M8 16h10v1H8z" fill="#ffffff" opacity="0.7"/>
  <path d="M8 18h14v1H8z" fill="#ffffff" opacity="0.7"/>
  
  <!-- Globe lines -->
  <circle cx="16" cy="16" r="8" fill="none" stroke="#ffffff" stroke-width="1" opacity="0.6"/>
  <path d="M8 16h16" stroke="#ffffff" stroke-width="1" opacity="0.6"/>
  <path d="M16 8v16" stroke="#ffffff" stroke-width="1" opacity="0.6"/>
  
  <!-- A for Afrin -->
  <path d="M14 12h4l-1 4h-2l-1-4z" fill="#ffffff"/>
  <path d="M15 18h2v2h-2z" fill="#ffffff"/>
</svg> 